<svg width="64" height="64" viewBox="0 0 64 64" fill="none" xmlns="http://www.w3.org/2000/svg">
<path d="M26.9 43.1C26.7 43.1 26.5166 43.0667 26.35 43C26.1833 42.9334 26.0166 42.8167 25.85 42.6501L16.8 33.6C16.5 33.3 16.35 32.9334 16.35 32.5C16.35 32.0667 16.5 31.7 16.8 31.4C17.1 31.1 17.45 30.95 17.85 30.95C18.25 30.95 18.6 31.1 18.9 31.4L26.9 39.4L45.05 21.25C45.35 20.95 45.7083 20.8 46.125 20.8C46.5416 20.8 46.9 20.95 47.2 21.25C47.5 21.55 47.65 21.9084 47.65 22.325C47.65 22.7417 47.5 23.1 47.2 23.4L27.95 42.6501C27.7833 42.8167 27.6166 42.9334 27.45 43C27.2833 43.0667 27.1 43.1 26.9 43.1Z" fill="#9EA0AF"/>
<rect x="0.5" y="0.5" width="63" height="63" rx="31.5" stroke="#9EA0AF"/>
</svg>
