<svg width="64" height="64" viewBox="0 0 64 64" fill="none" xmlns="http://www.w3.org/2000/svg">
<path d="M32 47.4C31.8333 47.4 31.6583 47.3667 31.475 47.3C31.2917 47.2333 31.1167 47.1167 30.95 46.95L17.05 33.05C16.75 32.75 16.6 32.4 16.6 32C16.6 31.6 16.75 31.25 17.05 30.95C17.35 30.65 17.7 30.5 18.1 30.5C18.5 30.5 18.85 30.65 19.15 30.95L30.5 42.3V17.5C30.5 17.0667 30.6417 16.7083 30.925 16.425C31.2083 16.1417 31.5667 16 32 16C32.4333 16 32.7917 16.1417 33.075 16.425C33.3583 16.7083 33.5 17.0667 33.5 17.5V42.3L44.85 30.95C45.15 30.65 45.5 30.5 45.9 30.5C46.3 30.5 46.65 30.65 46.95 30.95C47.25 31.25 47.4 31.6 47.4 32C47.4 32.4 47.25 32.75 46.95 33.05L33.05 46.95C32.8833 47.1167 32.7167 47.2333 32.55 47.3C32.3833 47.3667 32.2 47.4 32 47.4Z" fill="#9EA0AF"/>
<rect x="0.5" y="0.5" width="63" height="63" rx="31.5" stroke="#9EA0AF"/>
</svg>
