<svg width="64" height="64" viewBox="0 0 64 64" fill="none" xmlns="http://www.w3.org/2000/svg">
<path d="M32 46C31.5667 46 31.2083 45.8583 30.925 45.575C30.6417 45.2917 30.5 44.9333 30.5 44.5V33.5H19.5C19.0667 33.5 18.7083 33.3583 18.425 33.075C18.1417 32.7917 18 32.4333 18 32C18 31.5667 18.1417 31.2083 18.425 30.925C18.7083 30.6417 19.0667 30.5 19.5 30.5H30.5V19.5C30.5 19.0667 30.6417 18.7083 30.925 18.425C31.2083 18.1417 31.5667 18 32 18C32.4333 18 32.7917 18.1417 33.075 18.425C33.3583 18.7083 33.5 19.0667 33.5 19.5V30.5H44.5C44.9333 30.5 45.2917 30.6417 45.575 30.925C45.8583 31.2083 46 31.5667 46 32C46 32.4333 45.8583 32.7917 45.575 33.075C45.2917 33.3583 44.9333 33.5 44.5 33.5H33.5V44.5C33.5 44.9333 33.3583 45.2917 33.075 45.575C32.7917 45.8583 32.4333 46 32 46Z" fill="#9EA0AF"/>
<rect x="0.5" y="0.5" width="63" height="63" rx="31.5" stroke="#9EA0AF"/>
</svg>
