<svg width="158" height="48" viewBox="0 0 158 48" fill="none" xmlns="http://www.w3.org/2000/svg">
<g clip-path="url(#clip0_2_100)">
<path d="M156.976 22.319H145.924V11.2185H140.057V22.319H129.006V28.0406H140.057V39.141H145.924V28.0406H156.976V22.319Z" fill="white"/>
<mask id="mask0_2_100" style="mask-type:luminance" maskUnits="userSpaceOnUse" x="-21" y="-15" width="201" height="80">
<path d="M179.078 -14.5877H-20.2773V64.9463H179.078V-14.5877Z" fill="white"/>
</mask>
<g mask="url(#mask0_2_100)">
<path d="M108.896 14.4794C111.745 14.4794 113.568 15.9668 113.568 18.4276C113.568 21.0029 111.745 22.8331 108.896 22.8331H104.34V14.4794H108.896ZM112.485 28.6693C117.385 28.0406 121.43 23.8055 121.43 18.4276C121.43 11.4468 116.701 7.61312 109.068 7.61312H96.5923V42.7455H104.34V28.8416L113.623 42.7455H122.626L112.485 28.6693ZM50.4021 7.61312H27.3349V14.7085H34.9117V42.7455H42.8297V14.7085H50.4021V7.61312ZM12.7595 20.4896C10.5386 19.4604 9.68364 18.3725 9.68364 16.9428C9.68364 15.2831 11.1079 13.9102 13.2201 13.967C15.1572 14.0238 16.5797 15.0539 17.6636 17.5191L24.328 14.6011C22.505 9.90868 18.8023 7.16199 12.8196 7.16199C6.49643 7.16199 1.8248 11.3358 1.8248 16.9472C1.8248 20.7809 3.64783 23.9272 8.31946 26.2716L12.9893 28.616C15.6098 29.9321 16.8635 30.9045 16.8635 32.8501C16.8635 34.9095 15.1545 36.3978 12.9893 36.3978C10.6535 36.3978 8.54579 35.0818 7.57769 32.106L0.513672 34.1662C2.10507 39.9455 6.83681 43.3209 12.9893 43.3209C19.6546 43.3209 24.7816 39.03 24.7816 32.8501C24.7816 28.1009 22.2751 24.8969 17.2047 22.549L12.7595 20.4896Z" fill="white"/>
</g>
<mask id="mask1_2_100" style="mask-type:luminance" maskUnits="userSpaceOnUse" x="47" y="1" width="48" height="46">
<path d="M65.4113 18.4871C65.3824 18.5762 65.326 18.6539 65.2504 18.709C65.1748 18.764 65.0838 18.7936 64.9905 18.7935H47.5576L61.6804 29.1C61.7514 29.1517 61.8362 29.181 61.9239 29.1842C62.0116 29.1873 62.0982 29.1642 62.1728 29.1177C66.0797 26.6792 69.495 24.9875 76.7606 23.0791C76.7606 23.0791 65.6208 31.463 58.3199 40.8567C58.1599 41.0618 58.0369 41.2936 57.9565 41.5413L56.4367 46.2399L70.54 35.9476C70.6155 35.8924 70.7065 35.8627 70.7999 35.8627C70.8933 35.8627 70.9843 35.8924 71.0599 35.9476L85.1632 46.2399L79.7745 29.5822C79.7456 29.4931 79.7455 29.397 79.7743 29.3079C79.803 29.2187 79.8591 29.141 79.9345 29.0858L94.0378 18.7935H76.6059C76.5125 18.7936 76.4215 18.764 76.3459 18.709C76.2703 18.6539 76.214 18.5762 76.185 18.4871L70.7982 1.83379L65.4113 18.4871Z" fill="white"/>
</mask>
<g mask="url(#mask1_2_100)">
<path d="M70.7978 -21.5087L25.4551 24.0354L70.7978 69.5795L116.141 24.0354L70.7978 -21.5087Z" fill="url(#paint0_linear_2_100)"/>
</g>
</g>
<defs>
<linearGradient id="paint0_linear_2_100" x1="52.6676" y1="42.3752" x2="85.2734" y2="9.91354" gradientUnits="userSpaceOnUse">
<stop stop-color="#FA1660"/>
<stop offset="0.28" stop-color="#FA1660"/>
<stop offset="0.78" stop-color="#FF6E00"/>
<stop offset="1" stop-color="#FF6E00"/>
</linearGradient>
<clipPath id="clip0_2_100">
<rect width="157.714" height="48" fill="white"/>
</clipPath>
</defs>
</svg>
